<?xml version="1.0" encoding="UTF-8" standalone="no"?>
<!-- Generator: Adobe Illustrator 15.0.0, SVG Export Plug-In . SVG Version: 6.00 Build 0)  -->

<svg
   xmlns:dc="http://purl.org/dc/elements/1.1/"
   xmlns:cc="http://creativecommons.org/ns#"
   xmlns:rdf="http://www.w3.org/1999/02/22-rdf-syntax-ns#"
   xmlns:svg="http://www.w3.org/2000/svg"
   xmlns="http://www.w3.org/2000/svg"
   xmlns:sodipodi="http://sodipodi.sourceforge.net/DTD/sodipodi-0.dtd"
   xmlns:inkscape="http://www.inkscape.org/namespaces/inkscape"
   version="1.0"
   x="0px"
   y="0px"
   width="175.51601"
   height="216.265"
   viewBox="0 0 175.51601 216.265"
   enable-background="new 0 0 1400 980"
   xml:space="preserve"
   id="svg555"
   sodipodi:docname="journalicon.svg"
   inkscape:version="0.92.4 (5da689c313, 2019-01-14)"><metadata
   id="metadata561"><rdf:RDF><cc:Work
       rdf:about=""><dc:format>image/svg+xml</dc:format><dc:type
         rdf:resource="http://purl.org/dc/dcmitype/StillImage" /><dc:title></dc:title></cc:Work></rdf:RDF></metadata><defs
   id="defs559">
	
	
	
	
	
	
	
	
	
	
	
	
	

		
		
	
			
		
				
				
					
				
					
				
					
				
					
				
					
				
					
				
					
				
					
				
					
				
					
				
					
			
			
			
				
			
				
			
		</defs><sodipodi:namedview
   pagecolor="#ffffff"
   bordercolor="#666666"
   borderopacity="1"
   objecttolerance="10"
   gridtolerance="10"
   guidetolerance="10"
   inkscape:pageopacity="0"
   inkscape:pageshadow="2"
   inkscape:window-width="1920"
   inkscape:window-height="1001"
   id="namedview557"
   showgrid="false"
   inkscape:zoom="2.7245257"
   inkscape:cx="209.07234"
   inkscape:cy="76.231481"
   inkscape:window-x="-9"
   inkscape:window-y="-9"
   inkscape:window-maximized="1"
   inkscape:current-layer="svg555"
   fit-margin-top="0"
   fit-margin-left="0"
   fit-margin-right="0"
   fit-margin-bottom="0" />

<path
   stroke-miterlimit="10"
   d="m 17.915,189.503 v 12.38 c 0,6.809 5.574,12.382 12.384,12.382 h 130.833 c 6.81,0 12.384,-5.574 12.384,-12.382 V 14.381 C 173.516,7.571 167.942,2 161.132,2 H 30.299 C 23.489,2 17.915,7.571 17.915,14.381 v 12.387"
   id="path524"
   inkscape:connector-curvature="0"
   style="fill:#aa0000;fill-opacity:1;stroke:#000000;stroke-width:4;stroke-linejoin:round;stroke-miterlimit:10" /><line
   stroke-miterlimit="10"
   x1="17.914961"
   y1="159.59901"
   x2="17.914961"
   y2="176.261"
   id="line526"
   style="fill:#d3bc5f;fill-opacity:1;stroke:#000000;stroke-width:4;stroke-linejoin:round;stroke-miterlimit:10" /><line
   stroke-miterlimit="10"
   x1="17.914961"
   y1="129.70198"
   x2="17.914961"
   y2="146.35701"
   id="line528"
   style="fill:#d3bc5f;fill-opacity:1;stroke:#000000;stroke-width:4;stroke-linejoin:round;stroke-miterlimit:10" /><line
   stroke-miterlimit="10"
   x1="17.914961"
   y1="99.80098"
   x2="17.914961"
   y2="116.459"
   id="line530"
   style="fill:#d3bc5f;fill-opacity:1;stroke:#000000;stroke-width:4;stroke-linejoin:round;stroke-miterlimit:10" /><line
   stroke-miterlimit="10"
   x1="17.914961"
   y1="69.904984"
   x2="17.914961"
   y2="86.563004"
   id="line532"
   style="fill:#d3bc5f;fill-opacity:1;stroke:#000000;stroke-width:4;stroke-linejoin:round;stroke-miterlimit:10" /><line
   stroke-miterlimit="10"
   x1="17.914961"
   y1="40.005993"
   x2="17.914961"
   y2="56.661022"
   id="line534"
   style="fill:#d3bc5f;fill-opacity:1;stroke:#000000;stroke-width:4;stroke-linejoin:round;stroke-miterlimit:10" /><path
   stroke-miterlimit="10"
   d="M 8.62,40.006 C 4.964,40.006 2,37.043 2,33.386 2,29.728 4.964,26.765 8.62,26.765 h 18.59 c 3.657,0 6.621,2.963 6.621,6.621 0,3.657 -2.964,6.62 -6.621,6.62 z"
   id="path536"
   inkscape:connector-curvature="0"
   style="fill:#d3bc5f;fill-opacity:1;stroke:#000000;stroke-width:4;stroke-linecap:round;stroke-linejoin:round;stroke-miterlimit:10" /><path
   stroke-miterlimit="10"
   d="M 8.62,69.905 C 4.964,69.905 2,66.941 2,63.284 2,59.627 4.964,56.663 8.62,56.663 h 18.59 c 3.657,0 6.621,2.964 6.621,6.621 0,3.657 -2.964,6.621 -6.621,6.621 z"
   id="path538"
   inkscape:connector-curvature="0"
   style="fill:#d3bc5f;fill-opacity:1;stroke:#000000;stroke-width:4;stroke-linecap:round;stroke-linejoin:round;stroke-miterlimit:10" /><path
   stroke-miterlimit="10"
   d="M 8.62,99.804 C 4.964,99.804 2,96.841 2,93.183 2,89.526 4.964,86.562 8.62,86.562 h 18.59 c 3.657,0 6.621,2.964 6.621,6.621 0,3.657 -2.964,6.621 -6.621,6.621 z"
   id="path540"
   inkscape:connector-curvature="0"
   style="fill:#d3bc5f;fill-opacity:1;stroke:#000000;stroke-width:4;stroke-linecap:round;stroke-linejoin:round;stroke-miterlimit:10" /><path
   stroke-miterlimit="10"
   d="m 8.62,129.702 c -3.656,0 -6.62,-2.963 -6.62,-6.621 0,-3.657 2.964,-6.62 6.62,-6.62 h 18.59 c 3.657,0 6.621,2.963 6.621,6.62 0,3.657 -2.964,6.621 -6.621,6.621 z"
   id="path542"
   inkscape:connector-curvature="0"
   style="fill:#d3bc5f;fill-opacity:1;stroke:#000000;stroke-width:4;stroke-linecap:round;stroke-linejoin:round;stroke-miterlimit:10" /><path
   stroke-miterlimit="10"
   d="m 8.62,159.601 c -3.656,0 -6.62,-2.963 -6.62,-6.618 0,-3.659 2.964,-6.623 6.62,-6.623 h 18.59 c 3.657,0 6.621,2.964 6.621,6.623 0,3.655 -2.964,6.618 -6.621,6.618 z"
   id="path544"
   inkscape:connector-curvature="0"
   style="fill:#d3bc5f;fill-opacity:1;stroke:#000000;stroke-width:4;stroke-linecap:round;stroke-linejoin:round;stroke-miterlimit:10" /><path
   stroke-miterlimit="10"
   d="M 8.62,189.5 C 4.964,189.5 2,186.537 2,182.88 c 0,-3.657 2.964,-6.621 6.62,-6.621 h 18.59 c 3.657,0 6.621,2.964 6.621,6.621 0,3.657 -2.964,6.62 -6.621,6.62 z"
   id="path546"
   inkscape:connector-curvature="0"
   style="fill:#d3bc5f;fill-opacity:1;stroke:#000000;stroke-width:4;stroke-linecap:round;stroke-linejoin:round;stroke-miterlimit:10" />
</svg>